<svg xmlns="http://www.w3.org/2000/svg" width="1120" height="1720" viewBox="0 0 1120 1720">
<rect width="100%" height="100%" fill="#f8fafc"/>
<text x="560.0" y="38.0" font-family="Arial, sans-serif" font-size="24" text-anchor="middle" font-weight="bold" fill="#1f2937">Matrix multiplication benchmark metrics</text>
<text x="560.0" y="62.0" font-family="Arial, sans-serif" font-size="14" text-anchor="middle" font-weight="normal" fill="#475569">Logarithmic axes; each color identifies one implementation</text>
<rect x="145" y="120" width="855" height="220" fill="white" stroke="#cbd5e1"/>
<text x="572.5" y="106.0" font-family="Arial, sans-serif" font-size="18" text-anchor="middle" font-weight="bold" fill="#1f2937">CPU time</text>
<text x="572.5" y="382.0" font-family="Arial, sans-serif" font-size="14" text-anchor="middle" font-weight="normal" fill="#1f2937">Matrix dimension N</text>
<text x="91" y="230.0" font-family="Arial, sans-serif" font-size="14" text-anchor="middle" fill="#1f2937" transform="rotate(-90 91 230.0)">CPU time (ms, log scale)</text>
<line x1="145.0" y1="120" x2="145.0" y2="340" stroke="#e2e8f0"/>
<text x="145.0" y="358.0" font-family="Arial, sans-serif" font-size="12" text-anchor="middle" font-weight="normal" fill="#475569">512</text>
<line x1="430.0" y1="120" x2="430.0" y2="340" stroke="#e2e8f0"/>
<text x="430.0" y="358.0" font-family="Arial, sans-serif" font-size="12" text-anchor="middle" font-weight="normal" fill="#475569">1024</text>
<line x1="715.0" y1="120" x2="715.0" y2="340" stroke="#e2e8f0"/>
<text x="715.0" y="358.0" font-family="Arial, sans-serif" font-size="12" text-anchor="middle" font-weight="normal" fill="#475569">2048</text>
<line x1="1000.0" y1="120" x2="1000.0" y2="340" stroke="#e2e8f0"/>
<text x="1000.0" y="358.0" font-family="Arial, sans-serif" font-size="12" text-anchor="middle" font-weight="normal" fill="#475569">4096</text>
<line x1="145" y1="340.0" x2="1000" y2="340.0" stroke="#e2e8f0"/>
<text x="136.0" y="344.0" font-family="Arial, sans-serif" font-size="12" text-anchor="end" font-weight="normal" fill="#475569">31.4 ms</text>
<line x1="145" y1="285.0" x2="1000" y2="285.0" stroke="#e2e8f0"/>
<text x="136.0" y="289.0" font-family="Arial, sans-serif" font-size="12" text-anchor="end" font-weight="normal" fill="#475569">153 ms</text>
<line x1="145" y1="230.0" x2="1000" y2="230.0" stroke="#e2e8f0"/>
<text x="136.0" y="234.0" font-family="Arial, sans-serif" font-size="12" text-anchor="end" font-weight="normal" fill="#475569">750 ms</text>
<line x1="145" y1="175.0" x2="1000" y2="175.0" stroke="#e2e8f0"/>
<text x="136.0" y="179.0" font-family="Arial, sans-serif" font-size="12" text-anchor="end" font-weight="normal" fill="#475569">3.67e+03 ms</text>
<line x1="145" y1="120.0" x2="1000" y2="120.0" stroke="#e2e8f0"/>
<text x="136.0" y="124.0" font-family="Arial, sans-serif" font-size="12" text-anchor="end" font-weight="normal" fill="#475569">1.79e+04 ms</text>
<polyline fill="none" stroke="#2563eb" stroke-width="2.5" points="145.0,334.4 430.0,263.2 715.0,194.2 1000.0,123.2"/>
<circle cx="145.0" cy="334.4" r="4" fill="#2563eb"/>
<circle cx="430.0" cy="263.2" r="4" fill="#2563eb"/>
<circle cx="715.0" cy="194.2" r="4" fill="#2563eb"/>
<circle cx="1000.0" cy="123.2" r="4" fill="#2563eb"/>
<line x1="795" y1="134" x2="815" y2="134" stroke="#2563eb" stroke-width="2.5"/>
<text x="820.0" y="138.0" font-family="Arial, sans-serif" font-size="12" text-anchor="start" font-weight="normal" fill="#334155">cache aware</text>
<polyline fill="none" stroke="#dc2626" stroke-width="2.5" points="145.0,335.3 430.0,259.6 715.0,194.5 1000.0,123.2"/>
<circle cx="145.0" cy="335.3" r="4" fill="#dc2626"/>
<circle cx="430.0" cy="259.6" r="4" fill="#dc2626"/>
<circle cx="715.0" cy="194.5" r="4" fill="#dc2626"/>
<circle cx="1000.0" cy="123.2" r="4" fill="#dc2626"/>
<line x1="795" y1="152" x2="815" y2="152" stroke="#dc2626" stroke-width="2.5"/>
<text x="820.0" y="156.0" font-family="Arial, sans-serif" font-size="12" text-anchor="start" font-weight="normal" fill="#334155">double cache aware</text>
<polyline fill="none" stroke="#16a34a" stroke-width="2.5" points="145.0,340.0 430.0,276.6 715.0,197.4 1000.0,120.0"/>
<circle cx="145.0" cy="340.0" r="4" fill="#16a34a"/>
<circle cx="430.0" cy="276.6" r="4" fill="#16a34a"/>
<circle cx="715.0" cy="197.4" r="4" fill="#16a34a"/>
<circle cx="1000.0" cy="120.0" r="4" fill="#16a34a"/>
<line x1="795" y1="170" x2="815" y2="170" stroke="#16a34a" stroke-width="2.5"/>
<text x="820.0" y="174.0" font-family="Arial, sans-serif" font-size="12" text-anchor="start" font-weight="normal" fill="#334155">ikj</text>
<rect x="145" y="445" width="855" height="220" fill="white" stroke="#cbd5e1"/>
<text x="572.5" y="431.0" font-family="Arial, sans-serif" font-size="18" text-anchor="middle" font-weight="bold" fill="#1f2937">Cycles</text>
<text x="572.5" y="707.0" font-family="Arial, sans-serif" font-size="14" text-anchor="middle" font-weight="normal" fill="#1f2937">Matrix dimension N</text>
<text x="91" y="555.0" font-family="Arial, sans-serif" font-size="14" text-anchor="middle" fill="#1f2937" transform="rotate(-90 91 555.0)">Cycles / multiplication (log scale)</text>
<line x1="145.0" y1="445" x2="145.0" y2="665" stroke="#e2e8f0"/>
<text x="145.0" y="683.0" font-family="Arial, sans-serif" font-size="12" text-anchor="middle" font-weight="normal" fill="#475569">512</text>
<line x1="430.0" y1="445" x2="430.0" y2="665" stroke="#e2e8f0"/>
<text x="430.0" y="683.0" font-family="Arial, sans-serif" font-size="12" text-anchor="middle" font-weight="normal" fill="#475569">1024</text>
<line x1="715.0" y1="445" x2="715.0" y2="665" stroke="#e2e8f0"/>
<text x="715.0" y="683.0" font-family="Arial, sans-serif" font-size="12" text-anchor="middle" font-weight="normal" fill="#475569">2048</text>
<line x1="1000.0" y1="445" x2="1000.0" y2="665" stroke="#e2e8f0"/>
<text x="1000.0" y="683.0" font-family="Arial, sans-serif" font-size="12" text-anchor="middle" font-weight="normal" fill="#475569">4096</text>
<line x1="145" y1="665.0" x2="1000" y2="665.0" stroke="#e2e8f0"/>
<text x="136.0" y="669.0" font-family="Arial, sans-serif" font-size="12" text-anchor="end" font-weight="normal" fill="#475569">75.8M</text>
<line x1="145" y1="610.0" x2="1000" y2="610.0" stroke="#e2e8f0"/>
<text x="136.0" y="614.0" font-family="Arial, sans-serif" font-size="12" text-anchor="end" font-weight="normal" fill="#475569">371M</text>
<line x1="145" y1="555.0" x2="1000" y2="555.0" stroke="#e2e8f0"/>
<text x="136.0" y="559.0" font-family="Arial, sans-serif" font-size="12" text-anchor="end" font-weight="normal" fill="#475569">1.82e+03M</text>
<line x1="145" y1="500.0" x2="1000" y2="500.0" stroke="#e2e8f0"/>
<text x="136.0" y="504.0" font-family="Arial, sans-serif" font-size="12" text-anchor="end" font-weight="normal" fill="#475569">8.89e+03M</text>
<line x1="145" y1="445.0" x2="1000" y2="445.0" stroke="#e2e8f0"/>
<text x="136.0" y="449.0" font-family="Arial, sans-serif" font-size="12" text-anchor="end" font-weight="normal" fill="#475569">4.35e+04M</text>
<polyline fill="none" stroke="#2563eb" stroke-width="2.5" points="145.0,661.3 430.0,584.9 715.0,516.3 1000.0,445.0"/>
<circle cx="145.0" cy="661.3" r="4" fill="#2563eb"/>
<circle cx="430.0" cy="584.9" r="4" fill="#2563eb"/>
<circle cx="715.0" cy="516.3" r="4" fill="#2563eb"/>
<circle cx="1000.0" cy="445.0" r="4" fill="#2563eb"/>
<line x1="795" y1="459" x2="815" y2="459" stroke="#2563eb" stroke-width="2.5"/>
<text x="820.0" y="463.0" font-family="Arial, sans-serif" font-size="12" text-anchor="start" font-weight="normal" fill="#334155">cache aware</text>
<polyline fill="none" stroke="#dc2626" stroke-width="2.5" points="145.0,660.5 430.0,585.4 715.0,517.4 1000.0,445.1"/>
<circle cx="145.0" cy="660.5" r="4" fill="#dc2626"/>
<circle cx="430.0" cy="585.4" r="4" fill="#dc2626"/>
<circle cx="715.0" cy="517.4" r="4" fill="#dc2626"/>
<circle cx="1000.0" cy="445.1" r="4" fill="#dc2626"/>
<line x1="795" y1="477" x2="815" y2="477" stroke="#dc2626" stroke-width="2.5"/>
<text x="820.0" y="481.0" font-family="Arial, sans-serif" font-size="12" text-anchor="start" font-weight="normal" fill="#334155">double cache aware</text>
<polyline fill="none" stroke="#16a34a" stroke-width="2.5" points="145.0,665.0 430.0,596.2 715.0,521.3 1000.0,450.3"/>
<circle cx="145.0" cy="665.0" r="4" fill="#16a34a"/>
<circle cx="430.0" cy="596.2" r="4" fill="#16a34a"/>
<circle cx="715.0" cy="521.3" r="4" fill="#16a34a"/>
<circle cx="1000.0" cy="450.3" r="4" fill="#16a34a"/>
<line x1="795" y1="495" x2="815" y2="495" stroke="#16a34a" stroke-width="2.5"/>
<text x="820.0" y="499.0" font-family="Arial, sans-serif" font-size="12" text-anchor="start" font-weight="normal" fill="#334155">ikj</text>
<rect x="145" y="770" width="855" height="220" fill="white" stroke="#cbd5e1"/>
<text x="572.5" y="756.0" font-family="Arial, sans-serif" font-size="18" text-anchor="middle" font-weight="bold" fill="#1f2937">Effective bandwidth</text>
<text x="572.5" y="1032.0" font-family="Arial, sans-serif" font-size="14" text-anchor="middle" font-weight="normal" fill="#1f2937">Matrix dimension N</text>
<text x="91" y="880.0" font-family="Arial, sans-serif" font-size="14" text-anchor="middle" fill="#1f2937" transform="rotate(-90 91 880.0)">Effective bytes/s (GB/s, log scale)</text>
<line x1="145.0" y1="770" x2="145.0" y2="990" stroke="#e2e8f0"/>
<text x="145.0" y="1008.0" font-family="Arial, sans-serif" font-size="12" text-anchor="middle" font-weight="normal" fill="#475569">512</text>
<line x1="430.0" y1="770" x2="430.0" y2="990" stroke="#e2e8f0"/>
<text x="430.0" y="1008.0" font-family="Arial, sans-serif" font-size="12" text-anchor="middle" font-weight="normal" fill="#475569">1024</text>
<line x1="715.0" y1="770" x2="715.0" y2="990" stroke="#e2e8f0"/>
<text x="715.0" y="1008.0" font-family="Arial, sans-serif" font-size="12" text-anchor="middle" font-weight="normal" fill="#475569">2048</text>
<line x1="1000.0" y1="770" x2="1000.0" y2="990" stroke="#e2e8f0"/>
<text x="1000.0" y="1008.0" font-family="Arial, sans-serif" font-size="12" text-anchor="middle" font-weight="normal" fill="#475569">4096</text>
<line x1="145" y1="990.0" x2="1000" y2="990.0" stroke="#e2e8f0"/>
<text x="136.0" y="994.0" font-family="Arial, sans-serif" font-size="12" text-anchor="end" font-weight="normal" fill="#475569">0.0224 GB/s</text>
<line x1="145" y1="935.0" x2="1000" y2="935.0" stroke="#e2e8f0"/>
<text x="136.0" y="939.0" font-family="Arial, sans-serif" font-size="12" text-anchor="end" font-weight="normal" fill="#475569">0.0388 GB/s</text>
<line x1="145" y1="880.0" x2="1000" y2="880.0" stroke="#e2e8f0"/>
<text x="136.0" y="884.0" font-family="Arial, sans-serif" font-size="12" text-anchor="end" font-weight="normal" fill="#475569">0.0671 GB/s</text>
<line x1="145" y1="825.0" x2="1000" y2="825.0" stroke="#e2e8f0"/>
<text x="136.0" y="829.0" font-family="Arial, sans-serif" font-size="12" text-anchor="end" font-weight="normal" fill="#475569">0.116 GB/s</text>
<line x1="145" y1="770.0" x2="1000" y2="770.0" stroke="#e2e8f0"/>
<text x="136.0" y="774.0" font-family="Arial, sans-serif" font-size="12" text-anchor="end" font-weight="normal" fill="#475569">0.2 GB/s</text>
<polyline fill="none" stroke="#2563eb" stroke-width="2.5" points="145.0,786.3 430.0,853.3 715.0,914.1 1000.0,980.8"/>
<circle cx="145.0" cy="786.3" r="4" fill="#2563eb"/>
<circle cx="430.0" cy="853.3" r="4" fill="#2563eb"/>
<circle cx="715.0" cy="914.1" r="4" fill="#2563eb"/>
<circle cx="1000.0" cy="980.8" r="4" fill="#2563eb"/>
<line x1="795" y1="784" x2="815" y2="784" stroke="#2563eb" stroke-width="2.5"/>
<text x="820.0" y="788.0" font-family="Arial, sans-serif" font-size="12" text-anchor="start" font-weight="normal" fill="#334155">cache aware</text>
<polyline fill="none" stroke="#dc2626" stroke-width="2.5" points="145.0,783.8 430.0,863.8 715.0,913.2 1000.0,980.7"/>
<circle cx="145.0" cy="783.8" r="4" fill="#dc2626"/>
<circle cx="430.0" cy="863.8" r="4" fill="#dc2626"/>
<circle cx="715.0" cy="913.2" r="4" fill="#dc2626"/>
<circle cx="1000.0" cy="980.7" r="4" fill="#dc2626"/>
<line x1="795" y1="802" x2="815" y2="802" stroke="#dc2626" stroke-width="2.5"/>
<text x="820.0" y="806.0" font-family="Arial, sans-serif" font-size="12" text-anchor="start" font-weight="normal" fill="#334155">double cache aware</text>
<polyline fill="none" stroke="#16a34a" stroke-width="2.5" points="145.0,770.0 430.0,814.6 715.0,904.8 1000.0,990.0"/>
<circle cx="145.0" cy="770.0" r="4" fill="#16a34a"/>
<circle cx="430.0" cy="814.6" r="4" fill="#16a34a"/>
<circle cx="715.0" cy="904.8" r="4" fill="#16a34a"/>
<circle cx="1000.0" cy="990.0" r="4" fill="#16a34a"/>
<line x1="795" y1="820" x2="815" y2="820" stroke="#16a34a" stroke-width="2.5"/>
<text x="820.0" y="824.0" font-family="Arial, sans-serif" font-size="12" text-anchor="start" font-weight="normal" fill="#334155">ikj</text>
<rect x="145" y="1095" width="855" height="220" fill="white" stroke="#cbd5e1"/>
<text x="572.5" y="1081.0" font-family="Arial, sans-serif" font-size="18" text-anchor="middle" font-weight="bold" fill="#1f2937">Throughput</text>
<text x="572.5" y="1357.0" font-family="Arial, sans-serif" font-size="14" text-anchor="middle" font-weight="normal" fill="#1f2937">Matrix dimension N</text>
<text x="91" y="1205.0" font-family="Arial, sans-serif" font-size="14" text-anchor="middle" fill="#1f2937" transform="rotate(-90 91 1205.0)">FLOP/s (GFLOP/s, log scale)</text>
<line x1="145.0" y1="1095" x2="145.0" y2="1315" stroke="#e2e8f0"/>
<text x="145.0" y="1333.0" font-family="Arial, sans-serif" font-size="12" text-anchor="middle" font-weight="normal" fill="#475569">512</text>
<line x1="430.0" y1="1095" x2="430.0" y2="1315" stroke="#e2e8f0"/>
<text x="430.0" y="1333.0" font-family="Arial, sans-serif" font-size="12" text-anchor="middle" font-weight="normal" fill="#475569">1024</text>
<line x1="715.0" y1="1095" x2="715.0" y2="1315" stroke="#e2e8f0"/>
<text x="715.0" y="1333.0" font-family="Arial, sans-serif" font-size="12" text-anchor="middle" font-weight="normal" fill="#475569">2048</text>
<line x1="1000.0" y1="1095" x2="1000.0" y2="1315" stroke="#e2e8f0"/>
<text x="1000.0" y="1333.0" font-family="Arial, sans-serif" font-size="12" text-anchor="middle" font-weight="normal" fill="#475569">4096</text>
<line x1="145" y1="1315.0" x2="1000" y2="1315.0" stroke="#e2e8f0"/>
<text x="136.0" y="1319.0" font-family="Arial, sans-serif" font-size="12" text-anchor="end" font-weight="normal" fill="#475569">6.72 GFLOP/s</text>
<line x1="145" y1="1260.0" x2="1000" y2="1260.0" stroke="#e2e8f0"/>
<text x="136.0" y="1264.0" font-family="Arial, sans-serif" font-size="12" text-anchor="end" font-weight="normal" fill="#475569">7.6 GFLOP/s</text>
<line x1="145" y1="1205.0" x2="1000" y2="1205.0" stroke="#e2e8f0"/>
<text x="136.0" y="1209.0" font-family="Arial, sans-serif" font-size="12" text-anchor="end" font-weight="normal" fill="#475569">8.59 GFLOP/s</text>
<line x1="145" y1="1150.0" x2="1000" y2="1150.0" stroke="#e2e8f0"/>
<text x="136.0" y="1154.0" font-family="Arial, sans-serif" font-size="12" text-anchor="end" font-weight="normal" fill="#475569">9.71 GFLOP/s</text>
<line x1="145" y1="1095.0" x2="1000" y2="1095.0" stroke="#e2e8f0"/>
<text x="136.0" y="1099.0" font-family="Arial, sans-serif" font-size="12" text-anchor="end" font-weight="normal" fill="#475569">11 GFLOP/s</text>
<polyline fill="none" stroke="#2563eb" stroke-width="2.5" points="145.0,1279.9 430.0,1267.8 715.0,1228.4 1000.0,1215.1"/>
<circle cx="145.0" cy="1279.9" r="4" fill="#2563eb"/>
<circle cx="430.0" cy="1267.8" r="4" fill="#2563eb"/>
<circle cx="715.0" cy="1228.4" r="4" fill="#2563eb"/>
<circle cx="1000.0" cy="1215.1" r="4" fill="#2563eb"/>
<line x1="795" y1="1109" x2="815" y2="1109" stroke="#2563eb" stroke-width="2.5"/>
<text x="820.0" y="1113.0" font-family="Arial, sans-serif" font-size="12" text-anchor="start" font-weight="normal" fill="#334155">cache aware</text>
<polyline fill="none" stroke="#dc2626" stroke-width="2.5" points="145.0,1268.4 430.0,1315.0 715.0,1224.3 1000.0,1214.8"/>
<circle cx="145.0" cy="1268.4" r="4" fill="#dc2626"/>
<circle cx="430.0" cy="1315.0" r="4" fill="#dc2626"/>
<circle cx="715.0" cy="1224.3" r="4" fill="#dc2626"/>
<circle cx="1000.0" cy="1214.8" r="4" fill="#dc2626"/>
<line x1="795" y1="1127" x2="815" y2="1127" stroke="#dc2626" stroke-width="2.5"/>
<text x="820.0" y="1131.0" font-family="Arial, sans-serif" font-size="12" text-anchor="start" font-weight="normal" fill="#334155">double cache aware</text>
<polyline fill="none" stroke="#16a34a" stroke-width="2.5" points="145.0,1207.0 430.0,1095.0 715.0,1187.0 1000.0,1256.4"/>
<circle cx="145.0" cy="1207.0" r="4" fill="#16a34a"/>
<circle cx="430.0" cy="1095.0" r="4" fill="#16a34a"/>
<circle cx="715.0" cy="1187.0" r="4" fill="#16a34a"/>
<circle cx="1000.0" cy="1256.4" r="4" fill="#16a34a"/>
<line x1="795" y1="1145" x2="815" y2="1145" stroke="#16a34a" stroke-width="2.5"/>
<text x="820.0" y="1149.0" font-family="Arial, sans-serif" font-size="12" text-anchor="start" font-weight="normal" fill="#334155">ikj</text>
<rect x="145" y="1420" width="855" height="220" fill="white" stroke="#cbd5e1"/>
<text x="572.5" y="1406.0" font-family="Arial, sans-serif" font-size="18" text-anchor="middle" font-weight="bold" fill="#1f2937">Instructions</text>
<text x="572.5" y="1682.0" font-family="Arial, sans-serif" font-size="14" text-anchor="middle" font-weight="normal" fill="#1f2937">Matrix dimension N</text>
<text x="91" y="1530.0" font-family="Arial, sans-serif" font-size="14" text-anchor="middle" fill="#1f2937" transform="rotate(-90 91 1530.0)">Instructions / multiplication (log scale)</text>
<line x1="145.0" y1="1420" x2="145.0" y2="1640" stroke="#e2e8f0"/>
<text x="145.0" y="1658.0" font-family="Arial, sans-serif" font-size="12" text-anchor="middle" font-weight="normal" fill="#475569">512</text>
<line x1="430.0" y1="1420" x2="430.0" y2="1640" stroke="#e2e8f0"/>
<text x="430.0" y="1658.0" font-family="Arial, sans-serif" font-size="12" text-anchor="middle" font-weight="normal" fill="#475569">1024</text>
<line x1="715.0" y1="1420" x2="715.0" y2="1640" stroke="#e2e8f0"/>
<text x="715.0" y="1658.0" font-family="Arial, sans-serif" font-size="12" text-anchor="middle" font-weight="normal" fill="#475569">2048</text>
<line x1="1000.0" y1="1420" x2="1000.0" y2="1640" stroke="#e2e8f0"/>
<text x="1000.0" y="1658.0" font-family="Arial, sans-serif" font-size="12" text-anchor="middle" font-weight="normal" fill="#475569">4096</text>
<line x1="145" y1="1640.0" x2="1000" y2="1640.0" stroke="#e2e8f0"/>
<text x="136.0" y="1644.0" font-family="Arial, sans-serif" font-size="12" text-anchor="end" font-weight="normal" fill="#475569">206M</text>
<line x1="145" y1="1585.0" x2="1000" y2="1585.0" stroke="#e2e8f0"/>
<text x="136.0" y="1589.0" font-family="Arial, sans-serif" font-size="12" text-anchor="end" font-weight="normal" fill="#475569">1e+03M</text>
<line x1="145" y1="1530.0" x2="1000" y2="1530.0" stroke="#e2e8f0"/>
<text x="136.0" y="1534.0" font-family="Arial, sans-serif" font-size="12" text-anchor="end" font-weight="normal" fill="#475569">4.89e+03M</text>
<line x1="145" y1="1475.0" x2="1000" y2="1475.0" stroke="#e2e8f0"/>
<text x="136.0" y="1479.0" font-family="Arial, sans-serif" font-size="12" text-anchor="end" font-weight="normal" fill="#475569">2.38e+04M</text>
<line x1="145" y1="1420.0" x2="1000" y2="1420.0" stroke="#e2e8f0"/>
<text x="136.0" y="1424.0" font-family="Arial, sans-serif" font-size="12" text-anchor="end" font-weight="normal" fill="#475569">1.16e+05M</text>
<polyline fill="none" stroke="#2563eb" stroke-width="2.5" points="145.0,1636.8 430.0,1564.6 715.0,1492.1 1000.0,1420.0"/>
<circle cx="145.0" cy="1636.8" r="4" fill="#2563eb"/>
<circle cx="430.0" cy="1564.6" r="4" fill="#2563eb"/>
<circle cx="715.0" cy="1492.1" r="4" fill="#2563eb"/>
<circle cx="1000.0" cy="1420.0" r="4" fill="#2563eb"/>
<line x1="795" y1="1434" x2="815" y2="1434" stroke="#2563eb" stroke-width="2.5"/>
<text x="820.0" y="1438.0" font-family="Arial, sans-serif" font-size="12" text-anchor="start" font-weight="normal" fill="#334155">cache aware</text>
<polyline fill="none" stroke="#dc2626" stroke-width="2.5" points="145.0,1636.6 430.0,1564.6 715.0,1492.3 1000.0,1420.0"/>
<circle cx="145.0" cy="1636.6" r="4" fill="#dc2626"/>
<circle cx="430.0" cy="1564.6" r="4" fill="#dc2626"/>
<circle cx="715.0" cy="1492.3" r="4" fill="#dc2626"/>
<circle cx="1000.0" cy="1420.0" r="4" fill="#dc2626"/>
<line x1="795" y1="1452" x2="815" y2="1452" stroke="#dc2626" stroke-width="2.5"/>
<text x="820.0" y="1456.0" font-family="Arial, sans-serif" font-size="12" text-anchor="start" font-weight="normal" fill="#334155">double cache aware</text>
<polyline fill="none" stroke="#16a34a" stroke-width="2.5" points="145.0,1640.0 430.0,1568.3 715.0,1496.1 1000.0,1423.9"/>
<circle cx="145.0" cy="1640.0" r="4" fill="#16a34a"/>
<circle cx="430.0" cy="1568.3" r="4" fill="#16a34a"/>
<circle cx="715.0" cy="1496.1" r="4" fill="#16a34a"/>
<circle cx="1000.0" cy="1423.9" r="4" fill="#16a34a"/>
<line x1="795" y1="1470" x2="815" y2="1470" stroke="#16a34a" stroke-width="2.5"/>
<text x="820.0" y="1474.0" font-family="Arial, sans-serif" font-size="12" text-anchor="start" font-weight="normal" fill="#334155">ikj</text>
</svg>